<?xml version="1.0" standalone="no"?>
<!DOCTYPE svg PUBLIC "-//W3C//DTD SVG 20010904//EN"
 "http://www.w3.org/TR/2001/REC-SVG-20010904/DTD/svg10.dtd">
<svg version="1.0" xmlns="http://www.w3.org/2000/svg"
 width="512.000000pt" height="512.000000pt" viewBox="0 0 512.000000 512.000000"
 preserveAspectRatio="xMidYMid meet">
<metadata>
Created by potrace 1.11, written by Peter Selinger 2001-2013
</metadata>
<g transform="translate(0.000000,512.000000) scale(0.100000,-0.100000)"
fill="#000000" stroke="none">
<path d="M1755 4869 c-4 -6 -5 -12 -2 -15 2 -3 7 2 10 11 7 17 1 20 -8 4z"/>
<path d="M2715 4869 c-4 -6 -5 -12 -2 -15 2 -3 7 2 10 11 7 17 1 20 -8 4z"/>
<path d="M3675 4869 c-4 -6 -5 -12 -2 -15 2 -3 7 2 10 11 7 17 1 20 -8 4z"/>
<path d="M636 4853 c-6 -14 -5 -15 5 -6 7 7 10 15 7 18 -3 3 -9 -2 -12 -12z"/>
<path d="M780 4860 c-9 -6 -10 -10 -3 -10 6 0 15 5 18 10 8 12 4 12 -15 0z"/>
<path d="M860 4860 c-9 -6 -10 -10 -3 -10 6 0 15 5 18 10 8 12 4 12 -15 0z"/>
<path d="M940 4860 c-9 -6 -10 -10 -3 -10 6 0 15 5 18 10 8 12 4 12 -15 0z"/>
<path d="M1007 4859 c7 -7 15 -10 18 -7 3 3 -2 9 -12 12 -14 6 -15 5 -6 -5z"/>
<path d="M1487 4859 c7 -7 15 -10 18 -7 3 3 -2 9 -12 12 -14 6 -15 5 -6 -5z"/>
<path d="M1687 4859 c7 -7 15 -10 18 -7 3 3 -2 9 -12 12 -14 6 -15 5 -6 -5z"/>
<path d="M1847 4859 c7 -7 15 -10 18 -7 3 3 -2 9 -12 12 -14 6 -15 5 -6 -5z"/>
<path d="M1910 4861 c0 -6 4 -13 10 -16 6 -3 7 1 4 9 -7 18 -14 21 -14 7z"/>
<path d="M1967 4859 c7 -7 15 -10 18 -7 3 3 -2 9 -12 12 -14 6 -15 5 -6 -5z"/>
<path d="M2447 4859 c7 -7 15 -10 18 -7 3 3 -2 9 -12 12 -14 6 -15 5 -6 -5z"/>
<path d="M2647 4859 c7 -7 15 -10 18 -7 3 3 -2 9 -12 12 -14 6 -15 5 -6 -5z"/>
<path d="M2807 4859 c7 -7 15 -10 18 -7 3 3 -2 9 -12 12 -14 6 -15 5 -6 -5z"/>
<path d="M2870 4861 c0 -6 4 -13 10 -16 6 -3 7 1 4 9 -7 18 -14 21 -14 7z"/>
<path d="M2927 4859 c7 -7 15 -10 18 -7 3 3 -2 9 -12 12 -14 6 -15 5 -6 -5z"/>
<path d="M3407 4859 c7 -7 15 -10 18 -7 3 3 -2 9 -12 12 -14 6 -15 5 -6 -5z"/>
<path d="M3607 4859 c7 -7 15 -10 18 -7 3 3 -2 9 -12 12 -14 6 -15 5 -6 -5z"/>
<path d="M3767 4859 c7 -7 15 -10 18 -7 3 3 -2 9 -12 12 -14 6 -15 5 -6 -5z"/>
<path d="M3830 4861 c0 -6 4 -13 10 -16 6 -3 7 1 4 9 -7 18 -14 21 -14 7z"/>
<path d="M3887 4859 c7 -7 15 -10 18 -7 3 3 -2 9 -12 12 -14 6 -15 5 -6 -5z"/>
<path d="M1064 4838 l-19 -23 23 19 c21 18 27 26 19 26 -2 0 -12 -10 -23 -22z"/>
<path d="M1184 4838 l-19 -23 23 19 c21 18 27 26 19 26 -2 0 -12 -10 -23 -22z"/>
<path d="M1304 4838 l-19 -23 23 19 c21 18 27 26 19 26 -2 0 -12 -10 -23 -22z"/>
<path d="M1544 4838 l-19 -23 23 19 c21 18 27 26 19 26 -2 0 -12 -10 -23 -22z"/>
<path d="M2024 4838 l-19 -23 23 19 c21 18 27 26 19 26 -2 0 -12 -10 -23 -22z"/>
<path d="M2144 4838 l-19 -23 23 19 c21 18 27 26 19 26 -2 0 -12 -10 -23 -22z"/>
<path d="M2264 4838 l-19 -23 23 19 c21 18 27 26 19 26 -2 0 -12 -10 -23 -22z"/>
<path d="M2504 4838 l-19 -23 23 19 c21 18 27 26 19 26 -2 0 -12 -10 -23 -22z"/>
<path d="M2984 4838 l-19 -23 23 19 c21 18 27 26 19 26 -2 0 -12 -10 -23 -22z"/>
<path d="M3104 4838 l-19 -23 23 19 c21 18 27 26 19 26 -2 0 -12 -10 -23 -22z"/>
<path d="M3224 4838 l-19 -23 23 19 c21 18 27 26 19 26 -2 0 -12 -10 -23 -22z"/>
<path d="M3464 4838 l-19 -23 23 19 c21 18 27 26 19 26 -2 0 -12 -10 -23 -22z"/>
<path d="M3944 4838 l-19 -23 23 19 c21 18 27 26 19 26 -2 0 -12 -10 -23 -22z"/>
<path d="M4064 4838 l-19 -23 23 19 c21 18 27 26 19 26 -2 0 -12 -10 -23 -22z"/>
<path d="M4184 4838 l-19 -23 23 19 c21 18 27 26 19 26 -2 0 -12 -10 -23 -22z"/>
<path d="M4424 4838 l-19 -23 23 19 c21 18 27 26 19 26 -2 0 -12 -10 -23 -22z"/>
<path d="M695 4840 c-3 -5 -1 -10 4 -10 6 0 11 5 11 10 0 6 -2 10 -4 10 -3 0
-8 -4 -11 -10z"/>
<path d="M1120 4846 c0 -2 8 -10 18 -17 15 -13 16 -12 3 4 -13 16 -21 21 -21
13z"/>
<path d="M1360 4846 c0 -2 8 -10 18 -17 15 -13 16 -12 3 4 -13 16 -21 21 -21
13z"/>
<path d="M1419 4833 c-13 -17 -13 -17 6 -3 11 8 22 16 24 17 2 2 0 3 -6 3 -6
0 -17 -8 -24 -17z"/>
<path d="M1610 4841 c0 -6 4 -13 10 -16 6 -3 7 1 4 9 -7 18 -14 21 -14 7z"/>
<path d="M1655 4840 c-3 -5 -1 -10 4 -10 6 0 11 5 11 10 0 6 -2 10 -4 10 -3 0
-8 -4 -11 -10z"/>
<path d="M1770 4841 c0 -6 4 -13 10 -16 6 -3 7 1 4 9 -7 18 -14 21 -14 7z"/>
<path d="M1815 4840 c-3 -5 -1 -10 4 -10 6 0 11 5 11 10 0 6 -2 10 -4 10 -3 0
-8 -4 -11 -10z"/>
<path d="M2080 4846 c0 -2 8 -10 18 -17 15 -13 16 -12 3 4 -13 16 -21 21 -21
13z"/>
<path d="M2320 4846 c0 -2 8 -10 18 -17 15 -13 16 -12 3 4 -13 16 -21 21 -21
13z"/>
<path d="M2379 4833 c-13 -17 -13 -17 6 -3 11 8 22 16 24 17 2 2 0 3 -6 3 -6
0 -17 -8 -24 -17z"/>
<path d="M2570 4841 c0 -6 4 -13 10 -16 6 -3 7 1 4 9 -7 18 -14 21 -14 7z"/>
<path d="M2615 4840 c-3 -5 -1 -10 4 -10 6 0 11 5 11 10 0 6 -2 10 -4 10 -3 0
-8 -4 -11 -10z"/>
<path d="M2730 4841 c0 -6 4 -13 10 -16 6 -3 7 1 4 9 -7 18 -14 21 -14 7z"/>
<path d="M2775 4840 c-3 -5 -1 -10 4 -10 6 0 11 5 11 10 0 6 -2 10 -4 10 -3 0
-8 -4 -11 -10z"/>
<path d="M3040 4846 c0 -2 8 -10 18 -17 15 -13 16 -12 3 4 -13 16 -21 21 -21
13z"/>
<path d="M3280 4846 c0 -2 8 -10 18 -17 15 -13 16 -12 3 4 -13 16 -21 21 -21
13z"/>
<path d="M3339 4833 c-13 -17 -13 -17 6 -3 11 8 22 16 24 17 2 2 0 3 -6 3 -6
0 -17 -8 -24 -17z"/>
<path d="M3530 4841 c0 -6 4 -13 10 -16 6 -3 7 1 4 9 -7 18 -14 21 -14 7z"/>
<path d="M3575 4840 c-3 -5 -1 -10 4 -10 6 0 11 5 11 10 0 6 -2 10 -4 10 -3 0
-8 -4 -11 -10z"/>
<path d="M3690 4841 c0 -6 4 -13 10 -16 6 -3 7 1 4 9 -7 18 -14 21 -14 7z"/>
<path d="M3735 4840 c-3 -5 -1 -10 4 -10 6 0 11 5 11 10 0 6 -2 10 -4 10 -3 0
-8 -4 -11 -10z"/>
<path d="M4000 4846 c0 -2 8 -10 18 -17 15 -13 16 -12 3 4 -13 16 -21 21 -21
13z"/>
<path d="M4240 4846 c0 -2 8 -10 18 -17 15 -13 16 -12 3 4 -13 16 -21 21 -21
13z"/>
<path d="M4299 4833 c-13 -16 -12 -17 4 -4 16 13 21 21 13 21 -2 0 -10 -8 -17
-17z"/>
<path d="M4495 4841 c-3 -5 -2 -12 3 -15 5 -3 9 1 9 9 0 17 -3 19 -12 6z"/>
<path d="M1699 4833 c-1 -5 -1 -11 -1 -14 2 -12 -82 -8 -97 4 -12 9 -13 9 -7
0 4 -8 1 -13 -9 -13 -10 0 -14 5 -9 13 6 10 4 10 -7 0 -7 -7 -21 -13 -30 -13
-10 0 -20 6 -22 13 -4 10 -6 10 -6 0 -1 -8 -14 -13 -32 -13 -21 0 -28 4 -23
13 6 10 4 10 -7 0 -7 -7 -37 -13 -67 -13 -40 0 -51 3 -46 13 6 9 4 9 -7 1 -20
-17 -122 -17 -113 -1 5 9 4 9 -7 0 -7 -7 -37 -13 -67 -13 -40 0 -51 3 -46 13
6 10 4 10 -7 0 -7 -7 -21 -13 -30 -13 -10 0 -20 6 -22 13 -4 10 -6 10 -6 0 -1
-8 -14 -13 -32 -13 -21 0 -28 4 -23 13 6 9 4 9 -7 1 -9 -7 -88 -12 -209 -13
-107 -2 -208 -3 -225 -4 -22 -2 -29 2 -27 13 2 8 0 11 -5 7 -4 -5 -8 -16 -8
-25 0 -9 -6 -16 -13 -14 -7 1 -15 -5 -18 -13 -3 -8 -10 -12 -15 -9 -5 3 -6 10
-3 16 4 7 2 8 -4 4 -6 -4 -9 -13 -5 -21 5 -15 -12 -21 -20 -7 -2 4 -3 2 -1 -4
2 -12 -37 -50 -48 -46 -4 1 -5 -4 -2 -12 3 -7 -2 -19 -11 -26 -8 -7 -15 -19
-15 -27 0 -7 -7 -16 -16 -20 -13 -5 -13 -7 -2 -14 8 -6 9 -9 1 -9 -6 0 -10 -8
-8 -17 1 -10 0 -22 -3 -28 -4 -5 -5 -32 -4 -59 1 -27 -4 -56 -11 -65 -9 -12
-9 -13 1 -7 17 10 17 -95 0 -113 -10 -11 -10 -13 -1 -7 9 5 13 -2 13 -23 0
-16 -6 -32 -12 -34 -10 -4 -10 -6 0 -6 6 -1 12 -9 12 -19 0 -10 -6 -24 -12
-31 -10 -11 -10 -13 -1 -7 8 5 13 1 13 -9 0 -10 -5 -13 -12 -9 -10 6 -10 5 -1
-7 13 -16 15 -102 3 -94 -5 3 -12 1 -15 -5 -4 -6 -1 -9 7 -8 10 2 13 -16 15
-75 0 -42 -3 -75 -7 -72 -5 3 -12 1 -15 -5 -4 -6 -1 -9 7 -8 18 4 22 -40 6
-59 -9 -12 -10 -15 0 -9 8 5 12 -1 12 -23 0 -16 -6 -32 -12 -34 -10 -4 -10 -6
0 -6 6 -1 12 -9 12 -19 0 -10 -6 -24 -12 -31 -10 -11 -10 -13 0 -7 9 5 12 -6
12 -46 0 -30 -6 -60 -12 -67 -10 -11 -10 -12 -1 -7 16 9 16 -93 -1 -113 -8
-11 -8 -13 1 -7 18 10 18 -95 1 -113 -10 -11 -10 -13 -1 -7 9 5 13 -2 13 -23
0 -16 -6 -32 -12 -34 -10 -4 -10 -6 0 -6 6 -1 12 -9 12 -19 0 -10 -6 -24 -12
-31 -10 -11 -10 -13 -1 -7 8 5 13 1 13 -9 0 -10 -5 -13 -13 -9 -9 6 -9 5 0 -7
13 -16 15 -102 3 -94 -5 3 -12 1 -15 -5 -4 -6 -1 -9 7 -8 10 2 13 -16 15 -75
0 -42 -3 -75 -7 -72 -5 3 -12 1 -15 -5 -4 -6 -1 -9 7 -8 18 4 22 -40 6 -59 -9
-12 -10 -15 -1 -9 9 5 13 -1 13 -23 0 -16 -6 -32 -12 -34 -10 -4 -10 -6 0 -6
16 -1 16 -33 -1 -50 -9 -11 -9 -13 1 -7 17 10 17 -95 -1 -113 -9 -11 -9 -12 0
-7 16 9 16 -93 -1 -113 -8 -11 -8 -13 1 -7 18 10 18 -95 0 -113 -9 -11 -9 -13
0 -7 9 5 13 -2 13 -23 0 -16 -6 -32 -12 -34 -10 -4 -10 -6 0 -6 16 -1 16 -33
-1 -50 -9 -11 -9 -13 0 -7 8 5 13 1 13 -9 0 -10 -5 -13 -12 -9 -10 6 -10 5 -1
-7 13 -16 15 -102 3 -94 -5 3 -12 1 -15 -5 -4 -6 -1 -9 7 -8 10 2 13 -16 15
-75 0 -42 -3 -75 -7 -72 -5 3 -12 1 -15 -5 -4 -6 -1 -9 7 -8 18 4 22 -40 6
-59 -9 -12 -10 -15 -1 -9 9 5 13 -1 13 -23 0 -16 -6 -32 -12 -34 -10 -4 -10
-6 0 -6 16 -1 16 -33 -1 -50 -9 -11 -9 -13 0 -7 18 10 18 -95 0 -113 -9 -11
-9 -12 0 -7 16 9 16 -93 -1 -113 -8 -11 -8 -13 2 -7 17 10 17 -95 -1 -113 -9
-11 -9 -13 0 -7 9 5 13 -2 13 -23 0 -16 -6 -32 -12 -34 -10 -4 -10 -6 0 -6 16
-1 16 -33 -1 -50 -9 -11 -9 -13 1 -7 7 5 12 1 12 -9 0 -10 -5 -13 -12 -9 -10
6 -10 5 -1 -7 13 -16 15 -102 3 -94 -5 3 -12 1 -15 -5 -4 -6 -1 -9 7 -8 10 2
13 -16 15 -75 0 -42 -3 -75 -7 -72 -5 3 -12 1 -15 -5 -4 -6 -1 -9 7 -8 18 4
22 -40 6 -59 -9 -12 -10 -15 -1 -9 9 5 13 -1 13 -23 0 -16 -6 -32 -12 -34 -10
-4 -10 -6 0 -6 16 -1 16 -33 -1 -50 -9 -11 -9 -13 1 -7 17 10 17 -95 -1 -113
-9 -11 -9 -13 0 -7 10 6 13 -13 12 -79 -1 -51 4 -92 10 -98 6 -6 11 -21 11
-34 0 -13 4 -23 9 -23 5 0 12 -8 15 -17 8 -23 61 -83 73 -83 5 0 18 -8 29 -18
24 -22 89 -42 138 -42 27 0 35 -3 30 -12 -6 -10 -4 -10 7 -2 21 17 225 13 221
-4 -1 -8 2 -11 8 -7 6 3 8 10 5 15 -8 12 78 10 94 -3 12 -9 13 -9 7 1 -4 7 -1
12 9 12 10 0 14 -5 9 -12 -6 -10 -4 -11 7 0 17 16 46 16 52 0 4 -10 6 -10 6 0
1 7 14 12 32 12 21 0 28 -4 23 -12 -6 -10 -4 -10 7 -1 18 18 123 18 113 1 -6
-10 -4 -10 7 -2 20 17 122 17 113 1 -5 -9 -4 -9 7 1 18 17 123 17 113 0 -6
-10 -4 -11 7 0 17 16 46 16 52 0 4 -10 6 -10 6 0 1 7 14 12 32 12 21 0 28 -4
23 -12 -6 -10 -3 -9 9 0 19 16 63 12 59 -6 -1 -8 2 -11 8 -7 6 3 8 10 5 15 -3
4 30 7 72 7 59 -2 77 -5 75 -15 -1 -8 2 -11 8 -7 6 3 8 10 5 15 -8 12 78 10
94 -3 12 -9 13 -9 7 1 -4 7 -1 12 9 12 10 0 14 -5 9 -12 -6 -10 -4 -11 7 0 7
6 21 12 30 12 10 0 20 -6 22 -12 4 -10 6 -10 6 0 1 7 14 12 32 12 21 0 28 -4
23 -12 -6 -11 -4 -11 7 0 18 17 123 17 113 0 -6 -10 -4 -10 7 -2 20 17 122 17
113 1 -5 -9 -4 -9 7 1 18 17 123 17 113 0 -6 -10 -4 -10 7 -1 17 17 46 17 52
1 4 -10 6 -10 6 0 1 7 14 12 32 12 21 0 28 -4 23 -12 -6 -10 -3 -9 9 0 19 16
63 12 59 -6 -1 -8 2 -11 8 -7 6 3 8 10 5 15 -3 4 30 7 72 7 59 -2 77 -5 75
-15 -1 -8 2 -11 8 -7 6 3 8 10 5 15 -8 12 78 10 94 -3 12 -9 13 -9 7 1 -4 7
-1 12 9 12 10 0 14 -5 9 -13 -6 -9 -4 -9 7 1 7 6 21 12 30 12 10 0 20 -6 22
-12 4 -10 6 -10 6 0 1 7 14 12 32 12 21 0 28 -4 23 -12 -6 -10 -4 -11 7 0 18
17 123 17 113 0 -6 -10 -4 -10 7 -2 20 17 122 17 113 1 -5 -9 -4 -9 7 1 18 17
123 17 113 0 -6 -10 -4 -10 7 -1 17 17 46 17 52 1 4 -10 6 -10 6 0 1 7 14 12
32 12 21 0 28 -4 23 -13 -6 -9 -3 -8 9 1 19 16 63 12 59 -6 -1 -8 2 -11 8 -7
6 3 8 10 5 15 -3 4 30 7 72 7 59 -2 77 -5 75 -15 -1 -8 2 -11 8 -7 6 3 8 10 5
15 -8 12 78 10 94 -3 12 -9 13 -9 7 1 -4 7 -1 12 9 12 10 0 14 -5 9 -12 -6
-10 -4 -10 7 -1 17 17 46 17 52 1 4 -10 6 -10 6 0 1 7 14 12 32 12 21 0 28 -4
23 -13 -6 -9 -4 -9 7 0 18 18 123 18 113 0 -6 -9 -4 -9 7 -1 20 17 122 17 113
1 -5 -9 -4 -9 7 0 18 18 123 18 113 1 -6 -10 -5 -10 7 -1 20 16 122 16 113 0
-5 -8 -3 -8 7 0 7 7 35 13 61 13 32 0 66 9 99 25 48 25 77 26 63 3 -5 -7 -2
-8 5 -3 9 5 10 10 2 18 -7 7 -3 17 14 33 14 13 25 28 25 35 0 6 7 8 16 5 8 -3
12 -2 9 3 -6 10 14 61 24 61 4 0 8 12 9 28 1 15 6 28 10 29 4 2 6 40 5 85 -2
53 2 87 10 97 9 12 9 13 0 7 -18 -10 -18 95 0 113 9 11 9 12 0 7 -17 -9 -15
76 1 86 8 5 7 8 -1 8 -17 0 -17 82 0 99 9 11 9 12 0 7 -16 -9 -16 93 1 113 8
11 8 13 -1 7 -10 -5 -13 14 -13 86 0 61 4 99 13 107 9 11 9 12 0 7 -16 -9 -16
93 1 113 8 11 8 13 -1 7 -17 -9 -15 76 1 86 8 5 7 8 -1 8 -17 0 -17 82 0 99 9
11 9 12 0 7 -16 -9 -16 93 1 113 8 11 8 13 -1 7 -10 -5 -13 14 -13 86 0 61 4
99 13 107 9 11 9 12 0 7 -16 -9 -16 93 1 113 8 11 8 13 -1 7 -17 -9 -15 76 1
86 8 5 7 8 -1 8 -9 0 -13 15 -13 43 0 24 6 49 13 56 9 11 9 12 0 7 -16 -9 -16
93 1 113 8 11 8 13 -1 7 -18 -10 -18 174 0 193 9 11 9 12 0 7 -16 -9 -16 93 1
113 8 11 8 13 -1 7 -17 -9 -15 76 1 86 8 5 7 8 -1 8 -9 0 -13 15 -13 43 0 24
6 49 13 56 9 11 9 12 0 7 -16 -9 -16 93 1 113 8 11 8 13 -1 7 -18 -10 -18 174
0 193 9 11 9 12 0 7 -16 -9 -16 93 1 113 8 11 8 13 -1 7 -17 -9 -15 76 1 86 8
5 7 8 -1 8 -9 0 -13 15 -13 43 0 24 6 49 13 56 9 11 9 12 0 7 -16 -9 -16 93 1
113 8 11 8 13 -1 7 -10 -5 -13 14 -13 86 0 61 4 99 13 107 9 11 9 12 0 7 -16
-9 -16 93 1 113 8 11 8 13 -1 7 -17 -9 -15 76 1 86 8 5 7 8 -1 8 -17 0 -17 82
0 99 9 11 9 12 0 7 -16 -9 -16 93 1 113 8 11 8 13 -1 8 -9 -6 -12 11 -10 65 1
55 5 72 15 70 8 -1 11 2 7 8 -3 6 -11 8 -16 5 -5 -4 -9 7 -9 24 0 60 -68 173
-125 208 -43 27 -92 45 -140 50 -27 3 -56 11 -64 17 -11 8 -13 8 -7 -1 4 -8 1
-13 -9 -13 -10 0 -13 5 -9 13 6 9 5 9 -7 0 -20 -16 -122 -16 -113 0 5 8 3 8
-7 0 -7 -7 -37 -13 -67 -13 -40 0 -51 3 -46 13 6 9 4 9 -7 1 -20 -17 -122 -17
-113 -1 5 9 4 9 -7 0 -7 -7 -37 -13 -67 -13 -40 0 -51 3 -46 13 6 10 4 10 -7
0 -7 -7 -21 -13 -30 -13 -10 0 -20 6 -22 13 -4 10 -6 10 -6 0 -1 -8 -14 -13
-32 -13 -21 0 -28 4 -23 13 6 9 3 8 -9 -1 -19 -16 -63 -12 -59 6 1 8 -2 11 -8
7 -6 -3 -8 -10 -5 -15 3 -4 -30 -7 -72 -7 -59 2 -77 5 -75 15 1 8 -2 11 -8 7
-6 -3 -8 -10 -5 -15 8 -12 -78 -10 -94 3 -12 9 -13 9 -7 0 4 -8 1 -13 -9 -13
-10 0 -14 5 -9 13 6 10 4 10 -7 0 -7 -7 -21 -13 -30 -13 -10 0 -20 6 -22 13
-4 10 -6 10 -6 0 -1 -8 -14 -13 -32 -13 -21 0 -28 4 -23 13 6 10 4 10 -7 0 -7
-7 -37 -13 -67 -13 -40 0 -51 3 -46 13 6 9 4 9 -7 1 -20 -17 -122 -17 -113 -1
5 9 4 9 -7 0 -7 -7 -37 -13 -67 -13 -40 0 -51 3 -46 13 6 10 4 10 -7 0 -7 -7
-21 -13 -30 -13 -10 0 -20 6 -22 13 -4 10 -6 10 -6 0 -1 -8 -14 -13 -32 -13
-21 0 -28 4 -23 13 6 9 3 8 -9 -1 -19 -16 -63 -12 -59 6 1 8 -2 11 -8 7 -6 -3
-8 -10 -5 -15 3 -4 -30 -7 -72 -7 -59 2 -77 5 -75 15 1 8 -2 11 -8 7 -6 -3 -8
-10 -5 -15 8 -12 -78 -10 -94 3 -12 9 -13 9 -7 0 4 -8 1 -13 -9 -13 -10 0 -14
5 -9 13 6 10 4 10 -7 0 -7 -7 -21 -13 -30 -13 -10 0 -20 6 -22 13 -4 10 -6 10
-6 0 -1 -8 -14 -13 -32 -13 -21 0 -28 4 -23 13 6 10 4 10 -7 0 -7 -7 -37 -13
-67 -13 -40 0 -51 3 -46 13 6 9 4 9 -7 1 -20 -17 -122 -17 -113 -1 5 9 4 9 -7
0 -7 -7 -37 -13 -67 -13 -40 0 -51 3 -46 13 6 10 4 10 -7 0 -7 -7 -21 -13 -30
-13 -10 0 -20 6 -22 13 -4 10 -6 10 -6 0 -1 -8 -14 -13 -32 -13 -21 0 -28 4
-23 13 6 9 3 8 -9 -1 -19 -16 -63 -12 -59 6 1 8 -2 11 -8 7 -6 -3 -8 -10 -5
-15 3 -4 -30 -7 -72 -7 -57 2 -77 5 -75 15 1 6 0 12 -3 12 -3 0 -6 -3 -6 -7z"/>
<path d="M4606 4818 c3 -5 10 -6 15 -3 13 9 11 12 -6 12 -8 0 -12 -4 -9 -9z"/>
<path d="M336 4695 c-9 -26 -7 -32 5 -12 6 10 9 21 6 23 -2 3 -7 -2 -11 -11z"/>
<path d="M4786 4678 c3 -5 10 -6 15 -3 13 9 11 12 -6 12 -8 0 -12 -4 -9 -9z"/>
<path d="M4810 4620 c0 -5 5 -10 11 -10 5 0 7 5 4 10 -3 6 -8 10 -11 10 -2 0
-4 -4 -4 -10z"/>
<path d="M275 4561 c-3 -5 -2 -12 3 -15 5 -3 9 1 9 9 0 17 -3 19 -12 6z"/>
<path d="M4826 4462 c-3 -5 1 -9 9 -9 8 0 15 4 15 9 0 4 -4 8 -9 8 -6 0 -12
-4 -15 -8z"/>
<path d="M250 4446 c0 -2 7 -7 16 -10 8 -3 12 -2 9 4 -6 10 -25 14 -25 6z"/>
<path d="M270 4403 c0 -6 8 -17 18 -24 16 -13 16 -13 2 6 -8 11 -16 22 -17 24
-2 2 -3 0 -3 -6z"/>
<path d="M4834 4348 l-19 -23 23 19 c21 18 27 26 19 26 -2 0 -12 -10 -23 -22z"/>
<path d="M280 4335 c-7 -9 -11 -17 -9 -20 3 -2 10 5 17 15 14 24 10 26 -8 5z"/>
<path d="M260 4280 c-9 -6 -10 -10 -3 -10 6 0 15 5 18 10 8 12 4 12 -15 0z"/>
<path d="M4834 4228 l-19 -23 23 19 c12 11 22 21 22 23 0 8 -8 2 -26 -19z"/>
<path d="M274 4208 l-19 -23 23 19 c21 18 27 26 19 26 -2 0 -12 -10 -23 -22z"/>
<path d="M4820 4186 c0 -2 8 -10 18 -17 15 -13 16 -12 3 4 -13 16 -21 21 -21
13z"/>
<path d="M270 4146 c0 -2 7 -7 16 -10 8 -3 12 -2 9 4 -6 10 -25 14 -25 6z"/>
<path d="M275 4100 c-3 -5 -1 -10 4 -10 6 0 11 5 11 10 0 6 -2 10 -4 10 -3 0
-8 -4 -11 -10z"/>
<path d="M256 4067 c3 -10 9 -15 12 -12 3 3 0 11 -7 18 -10 9 -11 8 -5 -6z"/>
<path d="M4834 4028 l-19 -23 23 19 c21 18 27 26 19 26 -2 0 -12 -10 -23 -22z"/>
<path d="M245 4000 c-3 -6 1 -7 9 -4 18 7 21 14 7 14 -6 0 -13 -4 -16 -10z"/>
<path d="M270 3986 c0 -2 7 -7 16 -10 8 -3 12 -2 9 4 -6 10 -25 14 -25 6z"/>
<path d="M275 3940 c-3 -5 -1 -10 4 -10 6 0 11 5 11 10 0 6 -2 10 -4 10 -3 0
-8 -4 -11 -10z"/>
<path d="M4834 3908 l-19 -23 23 19 c21 18 27 26 19 26 -2 0 -12 -10 -23 -22z"/>
<path d="M256 3907 c3 -10 9 -15 12 -12 3 3 0 11 -7 18 -10 9 -11 8 -5 -6z"/>
<path d="M4829 3858 c11 -15 11 -21 0 -35 -12 -17 -12 -17 6 0 19 17 19 17 0
35 -18 16 -18 16 -6 0z"/>
<path d="M250 3846 c0 -2 7 -7 16 -10 8 -3 12 -2 9 4 -6 10 -25 14 -25 6z"/>
<path d="M256 3787 c3 -10 9 -15 12 -12 3 3 0 11 -7 18 -10 9 -11 8 -5 -6z"/>
<path d="M4820 3786 c0 -2 8 -10 18 -17 15 -13 16 -12 3 4 -13 16 -21 21 -21
13z"/>
<path d="M274 3728 l-19 -23 23 19 c21 18 27 26 19 26 -2 0 -12 -10 -23 -22z"/>
<path d="M4834 3708 l-19 -23 23 19 c21 18 27 26 19 26 -2 0 -12 -10 -23 -22z"/>
<path d="M270 3676 c0 -2 8 -10 18 -17 15 -13 16 -12 3 4 -13 16 -21 21 -21
13z"/>
<path d="M274 3608 l-19 -23 23 19 c21 18 27 26 19 26 -2 0 -12 -10 -23 -22z"/>
<path d="M4834 3588 l-19 -23 23 19 c12 11 22 21 22 23 0 8 -8 2 -26 -19z"/>
<path d="M4820 3546 c0 -2 8 -10 18 -17 15 -13 16 -12 3 4 -13 16 -21 21 -21
13z"/>
<path d="M274 3488 l-19 -23 23 19 c21 18 27 26 19 26 -2 0 -12 -10 -23 -22z"/>
<path d="M270 3436 c0 -2 8 -10 18 -17 15 -13 16 -12 3 4 -13 16 -21 21 -21
13z"/>
<path d="M4834 3388 l-19 -23 23 19 c12 11 22 21 22 23 0 8 -8 2 -26 -19z"/>
<path d="M280 3375 c-7 -9 -11 -17 -9 -20 3 -2 10 5 17 15 14 24 10 26 -8 5z"/>
<path d="M256 3307 c3 -10 9 -15 12 -12 3 3 0 11 -7 18 -10 9 -11 8 -5 -6z"/>
<path d="M4834 3268 l-19 -23 23 19 c21 18 27 26 19 26 -2 0 -12 -10 -23 -22z"/>
<path d="M274 3248 l-19 -23 23 19 c21 18 27 26 19 26 -2 0 -12 -10 -23 -22z"/>
<path d="M4829 3218 c11 -15 11 -21 0 -35 -12 -17 -12 -17 6 0 19 17 19 17 0
35 -18 16 -18 16 -6 0z"/>
<path d="M270 3186 c0 -2 7 -7 16 -10 8 -3 12 -2 9 4 -6 10 -25 14 -25 6z"/>
<path d="M275 3140 c-3 -5 -1 -10 4 -10 6 0 11 5 11 10 0 6 -2 10 -4 10 -3 0
-8 -4 -11 -10z"/>
<path d="M4820 3146 c0 -2 8 -10 18 -17 15 -13 16 -12 3 4 -13 16 -21 21 -21
13z"/>
<path d="M256 3107 c3 -10 9 -15 12 -12 3 3 0 11 -7 18 -10 9 -11 8 -5 -6z"/>
<path d="M4834 3068 l-19 -23 23 19 c21 18 27 26 19 26 -2 0 -12 -10 -23 -22z"/>
<path d="M245 3040 c-3 -6 1 -7 9 -4 18 7 21 14 7 14 -6 0 -13 -4 -16 -10z"/>
<path d="M270 3026 c0 -2 7 -7 16 -10 8 -3 12 -2 9 4 -6 10 -25 14 -25 6z"/>
<path d="M275 2980 c-3 -5 -1 -10 4 -10 6 0 11 5 11 10 0 6 -2 10 -4 10 -3 0
-8 -4 -11 -10z"/>
<path d="M4834 2948 l-19 -23 23 19 c12 11 22 21 22 23 0 8 -8 2 -26 -19z"/>
<path d="M256 2947 c3 -10 9 -15 12 -12 3 3 0 11 -7 18 -10 9 -11 8 -5 -6z"/>
<path d="M4820 2906 c0 -2 8 -10 18 -17 15 -13 16 -12 3 4 -13 16 -21 21 -21
13z"/>
<path d="M250 2886 c0 -2 7 -7 16 -10 8 -3 12 -2 9 4 -6 10 -25 14 -25 6z"/>
<path d="M256 2827 c3 -10 9 -15 12 -12 3 3 0 11 -7 18 -10 9 -11 8 -5 -6z"/>
<path d="M274 2768 l-19 -23 23 19 c21 18 27 26 19 26 -2 0 -12 -10 -23 -22z"/>
<path d="M4834 2748 l-19 -23 23 19 c21 18 27 26 19 26 -2 0 -12 -10 -23 -22z"/>
<path d="M270 2716 c0 -2 8 -10 18 -17 15 -13 16 -12 3 4 -13 16 -21 21 -21
13z"/>
<path d="M274 2648 l-19 -23 23 19 c21 18 27 26 19 26 -2 0 -12 -10 -23 -22z"/>
<path d="M4834 2628 l-19 -23 23 19 c12 11 22 21 22 23 0 8 -8 2 -26 -19z"/>
<path d="M4829 2578 c11 -15 11 -21 0 -35 -12 -17 -12 -17 6 0 19 17 19 17 0
35 -18 16 -18 16 -6 0z"/>
<path d="M274 2528 l-19 -23 23 19 c21 18 27 26 19 26 -2 0 -12 -10 -23 -22z"/>
<path d="M4820 2506 c0 -2 8 -10 18 -17 15 -13 16 -12 3 4 -13 16 -21 21 -21
13z"/>
<path d="M270 2476 c0 -2 8 -10 18 -17 15 -13 16 -12 3 4 -13 16 -21 21 -21
13z"/>
<path d="M4834 2428 l-19 -23 23 19 c21 18 27 26 19 26 -2 0 -12 -10 -23 -22z"/>
<path d="M280 2415 c-7 -9 -11 -17 -9 -20 3 -2 10 5 17 15 14 24 10 26 -8 5z"/>
<path d="M256 2347 c3 -10 9 -15 12 -12 3 3 0 11 -7 18 -10 9 -11 8 -5 -6z"/>
<path d="M4834 2308 l-19 -23 23 19 c21 18 27 26 19 26 -2 0 -12 -10 -23 -22z"/>
<path d="M274 2288 l-19 -23 23 19 c21 18 27 26 19 26 -2 0 -12 -10 -23 -22z"/>
<path d="M4820 2266 c0 -2 8 -10 18 -17 15 -13 16 -12 3 4 -13 16 -21 21 -21
13z"/>
<path d="M270 2226 c0 -2 7 -7 16 -10 8 -3 12 -2 9 4 -6 10 -25 14 -25 6z"/>
<path d="M275 2180 c-3 -5 -1 -10 4 -10 6 0 11 5 11 10 0 6 -2 10 -4 10 -3 0
-8 -4 -11 -10z"/>
<path d="M256 2147 c3 -10 9 -15 12 -12 3 3 0 11 -7 18 -10 9 -11 8 -5 -6z"/>
<path d="M4834 2108 l-19 -23 23 19 c12 11 22 21 22 23 0 8 -8 2 -26 -19z"/>
<path d="M245 2080 c-3 -6 1 -7 9 -4 18 7 21 14 7 14 -6 0 -13 -4 -16 -10z"/>
<path d="M270 2066 c0 -2 7 -7 16 -10 8 -3 12 -2 9 4 -6 10 -25 14 -25 6z"/>
<path d="M275 2020 c-3 -5 -1 -10 4 -10 6 0 11 5 11 10 0 6 -2 10 -4 10 -3 0
-8 -4 -11 -10z"/>
<path d="M4834 1988 l-19 -23 23 19 c12 11 22 21 22 23 0 8 -8 2 -26 -19z"/>
<path d="M256 1987 c3 -10 9 -15 12 -12 3 3 0 11 -7 18 -10 9 -11 8 -5 -6z"/>
<path d="M4829 1938 c11 -15 11 -21 0 -35 -12 -17 -12 -17 6 0 19 17 19 17 0
35 -18 16 -18 16 -6 0z"/>
<path d="M250 1926 c0 -2 7 -7 16 -10 8 -3 12 -2 9 4 -6 10 -25 14 -25 6z"/>
<path d="M256 1867 c3 -10 9 -15 12 -12 3 3 0 11 -7 18 -10 9 -11 8 -5 -6z"/>
<path d="M4820 1866 c0 -2 8 -10 18 -17 15 -13 16 -12 3 4 -13 16 -21 21 -21
13z"/>
<path d="M274 1808 l-19 -23 23 19 c21 18 27 26 19 26 -2 0 -12 -10 -23 -22z"/>
<path d="M4834 1788 l-19 -23 23 19 c12 11 22 21 22 23 0 8 -8 2 -26 -19z"/>
<path d="M270 1756 c0 -2 8 -10 18 -17 15 -13 16 -12 3 4 -13 16 -21 21 -21
13z"/>
<path d="M274 1688 l-19 -23 23 19 c21 18 27 26 19 26 -2 0 -12 -10 -23 -22z"/>
<path d="M4834 1668 l-19 -23 23 19 c21 18 27 26 19 26 -2 0 -12 -10 -23 -22z"/>
<path d="M4820 1626 c0 -2 8 -10 18 -17 15 -13 16 -12 3 4 -13 16 -21 21 -21
13z"/>
<path d="M274 1568 l-19 -23 23 19 c21 18 27 26 19 26 -2 0 -12 -10 -23 -22z"/>
<path d="M270 1516 c0 -2 8 -10 18 -17 15 -13 16 -12 3 4 -13 16 -21 21 -21
13z"/>
<path d="M4834 1468 l-19 -23 23 19 c21 18 27 26 19 26 -2 0 -12 -10 -23 -22z"/>
<path d="M280 1455 c-7 -9 -11 -17 -9 -20 3 -2 10 5 17 15 14 24 10 26 -8 5z"/>
<path d="M256 1387 c3 -10 9 -15 12 -12 3 3 0 11 -7 18 -10 9 -11 8 -5 -6z"/>
<path d="M4834 1348 l-19 -23 23 19 c21 18 27 26 19 26 -2 0 -12 -10 -23 -22z"/>
<path d="M274 1328 l-19 -23 23 19 c21 18 27 26 19 26 -2 0 -12 -10 -23 -22z"/>
<path d="M4829 1298 c11 -15 11 -21 0 -35 -12 -17 -12 -17 6 0 19 17 19 17 0
35 -18 16 -18 16 -6 0z"/>
<path d="M270 1266 c0 -2 7 -7 16 -10 8 -3 12 -2 9 4 -6 10 -25 14 -25 6z"/>
<path d="M275 1220 c-3 -5 -1 -10 4 -10 6 0 11 5 11 10 0 6 -2 10 -4 10 -3 0
-8 -4 -11 -10z"/>
<path d="M4820 1226 c0 -2 8 -10 18 -17 15 -13 16 -12 3 4 -13 16 -21 21 -21
13z"/>
<path d="M256 1187 c3 -10 9 -15 12 -12 3 3 0 11 -7 18 -10 9 -11 8 -5 -6z"/>
<path d="M4834 1148 l-19 -23 23 19 c21 18 27 26 19 26 -2 0 -12 -10 -23 -22z"/>
<path d="M245 1120 c-3 -6 1 -7 9 -4 18 7 21 14 7 14 -6 0 -13 -4 -16 -10z"/>
<path d="M270 1106 c0 -2 7 -7 16 -10 8 -3 12 -2 9 4 -6 10 -25 14 -25 6z"/>
<path d="M275 1060 c-3 -5 -1 -10 4 -10 6 0 11 5 11 10 0 6 -2 10 -4 10 -3 0
-8 -4 -11 -10z"/>
<path d="M4834 1028 l-19 -23 23 19 c21 18 27 26 19 26 -2 0 -12 -10 -23 -22z"/>
<path d="M256 1027 c3 -10 9 -15 12 -12 3 3 0 11 -7 18 -10 9 -11 8 -5 -6z"/>
<path d="M4820 986 c0 -2 8 -10 18 -17 15 -13 16 -12 3 4 -13 16 -21 21 -21
13z"/>
<path d="M250 966 c0 -2 7 -7 16 -10 8 -3 12 -2 9 4 -6 10 -25 14 -25 6z"/>
<path d="M260 920 c-9 -6 -10 -10 -3 -10 6 0 15 5 18 10 8 12 4 12 -15 0z"/>
<path d="M274 848 l-19 -23 23 19 c21 18 27 26 19 26 -2 0 -12 -10 -23 -22z"/>
<path d="M4834 828 l-19 -23 23 19 c21 18 27 26 19 26 -2 0 -12 -10 -23 -22z"/>
<path d="M270 796 c0 -2 8 -10 18 -17 15 -13 16 -12 3 4 -13 16 -21 21 -21 13z"/>
<path d="M4855 769 c-4 -6 -5 -12 -2 -15 2 -3 7 2 10 11 7 17 1 20 -8 4z"/>
<path d="M279 733 c-13 -16 -12 -17 4 -4 16 13 21 21 13 21 -2 0 -10 -8 -17
-17z"/>
<path d="M4833 712 c-8 -14 -8 -19 1 -19 7 0 13 9 13 19 1 10 1 18 0 18 -1 0
-7 -8 -14 -18z"/>
<path d="M275 670 c10 -11 20 -20 23 -20 3 0 -3 9 -13 20 -10 11 -20 20 -23
20 -3 0 3 -9 13 -20z"/>
<path d="M330 445 c0 -5 5 -17 10 -25 5 -8 10 -10 10 -5 0 6 -5 17 -10 25 -5
8 -10 11 -10 5z"/>
<path d="M936 287 c3 -10 9 -15 12 -12 3 3 0 11 -7 18 -10 9 -11 8 -5 -6z"/>
<path d="M1004 278 l-19 -23 23 19 c21 18 27 26 19 26 -2 0 -12 -10 -23 -22z"/>
<path d="M1126 285 c-11 -8 -15 -15 -9 -15 6 0 16 7 23 15 16 19 11 19 -14 0z"/>
<path d="M1170 296 c0 -2 8 -10 18 -17 15 -13 16 -12 3 4 -13 16 -21 21 -21
13z"/>
<path d="M1244 278 l-19 -23 23 19 c21 18 27 26 19 26 -2 0 -12 -10 -23 -22z"/>
<path d="M1364 278 l-19 -23 23 19 c21 18 27 26 19 26 -2 0 -12 -10 -23 -22z"/>
<path d="M1410 296 c0 -2 8 -10 18 -17 15 -13 16 -12 3 4 -13 16 -21 21 -21
13z"/>
<path d="M1484 278 l-19 -23 23 19 c21 18 27 26 19 26 -2 0 -12 -10 -23 -22z"/>
<path d="M1736 287 c3 -10 9 -15 12 -12 3 3 0 11 -7 18 -10 9 -11 8 -5 -6z"/>
<path d="M1896 287 c3 -10 9 -15 12 -12 3 3 0 11 -7 18 -10 9 -11 8 -5 -6z"/>
<path d="M1964 278 l-19 -23 23 19 c21 18 27 26 19 26 -2 0 -12 -10 -23 -22z"/>
<path d="M2086 285 c-11 -8 -15 -15 -9 -15 6 0 16 7 23 15 16 19 11 19 -14 0z"/>
<path d="M2130 296 c0 -2 8 -10 18 -17 15 -13 16 -12 3 4 -13 16 -21 21 -21
13z"/>
<path d="M2204 278 l-19 -23 23 19 c21 18 27 26 19 26 -2 0 -12 -10 -23 -22z"/>
<path d="M2324 278 l-19 -23 23 19 c12 11 22 21 22 23 0 8 -8 2 -26 -19z"/>
<path d="M2370 296 c0 -2 8 -10 18 -17 15 -13 16 -12 3 4 -13 16 -21 21 -21
13z"/>
<path d="M2444 278 l-19 -23 23 19 c21 18 27 26 19 26 -2 0 -12 -10 -23 -22z"/>
<path d="M2696 287 c3 -10 9 -15 12 -12 3 3 0 11 -7 18 -10 9 -11 8 -5 -6z"/>
<path d="M2856 287 c3 -10 9 -15 12 -12 3 3 0 11 -7 18 -10 9 -11 8 -5 -6z"/>
<path d="M2924 278 l-19 -23 23 19 c12 11 22 21 22 23 0 8 -8 2 -26 -19z"/>
<path d="M3046 285 c-11 -8 -15 -15 -9 -15 6 0 16 7 23 15 16 19 11 19 -14 0z"/>
<path d="M3090 296 c0 -2 8 -10 18 -17 15 -13 16 -12 3 4 -13 16 -21 21 -21
13z"/>
<path d="M3164 278 l-19 -23 23 19 c12 11 22 21 22 23 0 8 -8 2 -26 -19z"/>
<path d="M3284 278 l-19 -23 23 19 c12 11 22 21 22 23 0 8 -8 2 -26 -19z"/>
<path d="M3330 296 c0 -2 8 -10 18 -17 15 -13 16 -12 3 4 -13 16 -21 21 -21
13z"/>
<path d="M3404 278 l-19 -23 23 19 c12 11 22 21 22 23 0 8 -8 2 -26 -19z"/>
<path d="M3656 287 c3 -10 9 -15 12 -12 3 3 0 11 -7 18 -10 9 -11 8 -5 -6z"/>
<path d="M3816 287 c3 -10 9 -15 12 -12 3 3 0 11 -7 18 -10 9 -11 8 -5 -6z"/>
<path d="M3884 278 l-19 -23 23 19 c12 11 22 21 22 23 0 8 -8 2 -26 -19z"/>
<path d="M4006 285 c-11 -8 -15 -15 -9 -15 6 0 16 7 23 15 16 19 11 19 -14 0z"/>
<path d="M4050 296 c0 -2 8 -10 18 -17 15 -13 16 -12 3 4 -13 16 -21 21 -21
13z"/>
<path d="M4124 278 l-19 -23 23 19 c12 11 22 21 22 23 0 8 -8 2 -26 -19z"/>
<path d="M4244 278 l-19 -23 23 19 c12 11 22 21 22 23 0 8 -8 2 -26 -19z"/>
<path d="M4290 296 c0 -2 8 -10 18 -17 15 -13 16 -12 3 4 -13 16 -21 21 -21
13z"/>
<path d="M4364 278 l-19 -23 23 19 c12 11 22 21 22 23 0 8 -8 2 -26 -19z"/>
<path d="M890 279 c0 -5 5 -7 10 -4 6 3 10 8 10 11 0 2 -4 4 -10 4 -5 0 -10
-5 -10 -11z"/>
<path d="M1690 279 c0 -5 5 -7 10 -4 6 3 10 8 10 11 0 2 -4 4 -10 4 -5 0 -10
-5 -10 -11z"/>
<path d="M1850 279 c0 -5 5 -7 10 -4 6 3 10 8 10 11 0 2 -4 4 -10 4 -5 0 -10
-5 -10 -11z"/>
<path d="M2650 279 c0 -5 5 -7 10 -4 6 3 10 8 10 11 0 2 -4 4 -10 4 -5 0 -10
-5 -10 -11z"/>
<path d="M2810 279 c0 -5 5 -7 10 -4 6 3 10 8 10 11 0 2 -4 4 -10 4 -5 0 -10
-5 -10 -11z"/>
<path d="M3610 279 c0 -5 5 -7 10 -4 6 3 10 8 10 11 0 2 -4 4 -10 4 -5 0 -10
-5 -10 -11z"/>
<path d="M3770 279 c0 -5 5 -7 10 -4 6 3 10 8 10 11 0 2 -4 4 -10 4 -5 0 -10
-5 -10 -11z"/>
<path d="M1596 267 c3 -10 9 -15 12 -12 3 3 0 11 -7 18 -10 9 -11 8 -5 -6z"/>
<path d="M2556 267 c3 -10 9 -15 12 -12 3 3 0 11 -7 18 -10 9 -11 8 -5 -6z"/>
<path d="M3516 267 c3 -10 9 -15 12 -12 3 3 0 11 -7 18 -10 9 -11 8 -5 -6z"/>
<path d="M780 260 c18 -12 30 -13 30 -2 0 4 -10 9 -22 9 -18 2 -20 0 -8 -7z"/>
<path d="M850 266 c0 -2 7 -7 16 -10 8 -3 12 -2 9 4 -6 10 -25 14 -25 6z"/>
<path d="M1050 266 c0 -2 7 -7 16 -10 8 -3 12 -2 9 4 -6 10 -25 14 -25 6z"/>
<path d="M1530 266 c0 -2 7 -7 16 -10 8 -3 12 -2 9 4 -6 10 -25 14 -25 6z"/>
<path d="M1650 266 c0 -2 7 -7 16 -10 8 -3 12 -2 9 4 -6 10 -25 14 -25 6z"/>
<path d="M1756 253 c-6 -14 -5 -15 5 -6 7 7 10 15 7 18 -3 3 -9 -2 -12 -12z"/>
<path d="M1810 266 c0 -2 7 -7 16 -10 8 -3 12 -2 9 4 -6 10 -25 14 -25 6z"/>
<path d="M2010 266 c0 -2 7 -7 16 -10 8 -3 12 -2 9 4 -6 10 -25 14 -25 6z"/>
<path d="M2490 266 c0 -2 7 -7 16 -10 8 -3 12 -2 9 4 -6 10 -25 14 -25 6z"/>
<path d="M2610 266 c0 -2 7 -7 16 -10 8 -3 12 -2 9 4 -6 10 -25 14 -25 6z"/>
<path d="M2716 253 c-6 -14 -5 -15 5 -6 7 7 10 15 7 18 -3 3 -9 -2 -12 -12z"/>
<path d="M2770 266 c0 -2 7 -7 16 -10 8 -3 12 -2 9 4 -6 10 -25 14 -25 6z"/>
<path d="M2970 266 c0 -2 7 -7 16 -10 8 -3 12 -2 9 4 -6 10 -25 14 -25 6z"/>
<path d="M3450 266 c0 -2 7 -7 16 -10 8 -3 12 -2 9 4 -6 10 -25 14 -25 6z"/>
<path d="M3570 266 c0 -2 7 -7 16 -10 8 -3 12 -2 9 4 -6 10 -25 14 -25 6z"/>
<path d="M3676 253 c-6 -14 -5 -15 5 -6 7 7 10 15 7 18 -3 3 -9 -2 -12 -12z"/>
<path d="M3730 266 c0 -2 7 -7 16 -10 8 -3 12 -2 9 4 -6 10 -25 14 -25 6z"/>
<path d="M3930 266 c0 -2 7 -7 16 -10 8 -3 12 -2 9 4 -6 10 -25 14 -25 6z"/>
<path d="M4455 261 c-3 -5 -2 -12 3 -15 5 -3 9 1 9 9 0 17 -3 19 -12 6z"/>
</g>
</svg>
