<svg xmlns="http://www.w3.org/2000/svg" viewBox="0 0 1024 1024"><defs><style>.a{fill:#222831;}.b{fill:#eee;}.c{fill:#00adb5;}</style></defs><title>ianime-i17</title><rect class="a" width="1024" height="1024"/><path class="b" d="M140.26,410.4V613L98,575.24V410.4Z"/><path class="b" d="M266.14,413.39l57.24,161.85L292.51,613l-16.78-44.36H205.59L188.81,613l-30.87-37.76,56.95-161.85ZM218.48,527.58h43.76l-21.58-61.74Z"/><path class="c" d="M498.11,410.4V574.94L455.85,613,383.62,492.52V613l-42.26-38.06V410.4h42.26l72.23,120.48V410.4Z"/><path class="c" d="M558.35,410.4V613l-42.26-37.76V410.4Z"/><path class="c" d="M627.58,413.09l51.85,96.81,51.85-96.81h42.26l9.29,161.85L742.67,613l-6.9-119.28-38.66,71.93H661.45l-38.67-71.93L616.19,613,576,574.94l9.29-161.85Z"/><path class="c" d="M926.09,412.79l-34.17,41.66H842.77v33.27H921v41.66H842.77V571h83.62v42H831.68l-31.17-38.06V412.79Z"/></svg>