<svg xmlns="http://www.w3.org/2000/svg" viewBox="0 0 2048 1024"><defs><style>.a{fill:#eee;}.b{fill:#00adb5;}</style></defs><title>ianime-i16</title><path class="a" d="M279.6,308.4V714L195,638.4v-330Z"/><path class="a" d="M531.6,314.4l114.6,324L584.4,714l-33.6-88.8H410.4L376.8,714,315,638.4l114-324ZM436.2,543h87.6L480.6,419.4Z"/><path class="b" d="M996,308.4V637.8L911.4,714,766.8,472.8V714l-84.6-76.2V308.4h84.6L911.4,549.6V308.4Z"/><path class="b" d="M1116.59,308.4V714L1032,638.4v-330Z"/><path class="b" d="M1255.19,313.8,1359,507.6l103.8-193.8h84.61l18.6,324L1485.59,714l-13.8-238.8-77.4,144H1323l-77.4-144L1232.39,714,1152,637.8l18.6-324Z"/><path class="b" d="M1852.79,313.2l-68.4,83.4H1686v66.6h156.6v83.4H1686V630h167.4v84h-189.6l-62.4-76.2V313.2Z"/></svg>